<svg id="Layer_1" data-name="Layer 1" xmlns="http://www.w3.org/2000/svg" viewBox="0 0 315.83 356.09"><defs><style>.cls-1{fill:#fff;}</style></defs><title>nodejs-logo</title><path class="cls-1" d="M247,428.6c-9.8-1.7-17.33-8-25.63-12.71-9.69-5.48-19.19-11.28-28.75-17a15.14,15.14,0,0,1-2.78-2c-1.09-1-.89-2,.47-2.74A17.28,17.28,0,0,1,193,393.1a74.08,74.08,0,0,0,16.79-7.66c2.29-1.43,4.13-1.22,6.34.12,10.09,6.1,20.3,12,30.37,18.15a6.39,6.39,0,0,0,7.36.08q63.73-36.92,127.56-73.66a5.86,5.86,0,0,0,3.28-5.69q-.09-73.92,0-147.83a5.86,5.86,0,0,0-3.3-5.67q-64-36.83-127.9-73.79a5.85,5.85,0,0,0-6.56,0q-64.05,37.08-128.18,74a5.31,5.31,0,0,0-3,5.13q.06,74.27,0,148.55a5.14,5.14,0,0,0,2.89,5c11.39,6.52,22.7,13.17,34.11,19.66,5.18,2.95,10.76,4.63,16.84,4a16.64,16.64,0,0,0,15.24-16.9q0-29.15,0-58.3v-88.8c0-3.93,1.12-5,5.09-5,4.78,0,9.56,0,14.35,0,3.35,0,4.6,1.27,4.61,4.61q0,73.91,0,147.82c0,7.09-1,14-3.88,20.53-5.36,11.92-15,17.84-27.63,19.66-13.76,2-26.26-1.7-38.08-8.33-10.81-6.07-21.48-12.39-32.24-18.54-8.53-4.88-13.49-12.07-14.55-21.89a13.19,13.19,0,0,0-.29-1.39V174a8.52,8.52,0,0,0,.29-1.21c1.08-9.81,6.06-17,14.57-21.88q64.19-37,128.34-74.13c9.78-5.64,19.71-5.68,29.49-.05q64.13,37,128.19,74c10,5.79,15,14.37,14.95,25.93q0,73.92,0,147.83c0,11.58-5,20.14-15,25.91q-60.57,34.93-121.14,69.91c-5.95,3.44-11.69,7.37-18.76,8.27Z" transform="translate(-92.26 -72.51)"/><path class="cls-1" d="M290.67,174.32c12.62.18,25.07,1.15,37.1,5.13,10.53,3.48,19.64,9,26.15,18.29,5.24,7.46,7.79,15.9,8.94,24.83a30.4,30.4,0,0,1,.34,3.43,4,4,0,0,1-3.95,4.33c-6.53.09-13.07.08-19.61,0a4,4,0,0,1-3.91-3.19c-.42-1.45-.76-2.93-1.17-4.38-3.18-11.27-10.61-18-22-20.48-9-2-18.11-2.23-27.26-2-7.1.21-14.14.89-20.84,3.47-5.52,2.12-10.22,5.31-11.68,11.44a31.37,31.37,0,0,0-.56,8.61c.15,3.26,2.11,5.58,4.9,7.19a41.67,41.67,0,0,0,14.05,4.63c13.12,2.21,26.27,4.16,39.41,6.23,12.31,1.93,24.6,4,36.1,9.14,8.55,3.81,15.52,9.36,19.21,18.3a46,46,0,0,1,3,19.76c-.51,12.35-5,22.94-14.33,31.25A58.48,58.48,0,0,1,333.48,332c-14.34,4.69-29.14,5.65-44.1,5.19-11.1-.35-22.08-1.6-32.75-4.83s-20.1-8-27.46-16.49c-8.26-9.46-11.39-20.71-11.28-33a3.82,3.82,0,0,1,3.89-4c6.54-.09,13.08-.08,19.61,0a3.82,3.82,0,0,1,3.82,3.27c.46,1.94.75,3.92,1.18,5.87,2.57,11.57,10.17,18,21.32,20.75,10,2.49,20.1,2.83,30.28,2.71,8.12-.09,16.21-.55,24.1-2.73,4.11-1.13,8.05-2.68,11.3-5.54,6.18-5.41,7.39-12.37,5.78-20-.66-3.14-3.06-5.15-5.73-6.72A42.13,42.13,0,0,0,319,271.39c-9.77-1.67-19.57-3.17-29.41-4.38-12.31-1.51-24.68-2.65-36.51-6.65a72.78,72.78,0,0,1-13-5.8c-9.79-5.67-15.26-14.37-16.69-25.61-1.41-11,0-21.49,6.29-30.93,5.27-7.93,12.7-13.18,21.35-16.84C263.67,175.79,277.08,174.37,290.67,174.32Z" transform="translate(-92.26 -72.51)"/></svg>