<svg id="Layer_1" data-name="Layer 1" xmlns="http://www.w3.org/2000/svg" viewBox="0 0 426.47 222"><defs><style>.cls-1{fill:#fff;}</style></defs><title>php-logo</title><path class="cls-1" d="M250,143.26a382.6,382.6,0,0,1,82.08,8.63A306.77,306.77,0,0,1,367.81,162a238.84,238.84,0,0,1,31,13.31,171.05,171.05,0,0,1,25.41,16,114.06,114.06,0,0,1,18.95,18.16,74.91,74.91,0,0,1,11.77,19.71,55.74,55.74,0,0,1,0,41.62,74.91,74.91,0,0,1-11.77,19.71,114.06,114.06,0,0,1-18.95,18.16,171.05,171.05,0,0,1-25.41,16,238.84,238.84,0,0,1-31,13.31,306.77,306.77,0,0,1-35.73,10.09A382.6,382.6,0,0,1,250,356.74a382.6,382.6,0,0,1-82.08-8.63A306.77,306.77,0,0,1,132.19,338a238.84,238.84,0,0,1-31-13.31,171.05,171.05,0,0,1-25.41-16,114.06,114.06,0,0,1-19-18.16,74.91,74.91,0,0,1-11.77-19.71,55.74,55.74,0,0,1,0-41.62,74.91,74.91,0,0,1,11.77-19.71,114.06,114.06,0,0,1,19-18.16,171.05,171.05,0,0,1,25.41-16,238.84,238.84,0,0,1,31-13.31,306.77,306.77,0,0,1,35.73-10.09A382.6,382.6,0,0,1,250,143.26m0-4.26C132.23,139,36.76,188.7,36.76,250S132.23,361,250,361s213.24-49.7,213.24-111S367.77,139,250,139Z" transform="translate(-36.76 -139)"/><path class="cls-1" d="M174.05,197.42H120L96.64,315.72h27.75l5.85-30.67h26.28c24.83,1.46,52.58-19,52.58-54C209.1,210.56,197.42,198.88,174.05,197.42ZM153.6,263.15H136.08l7.3-43.82h19c10.22,0,17.52,4.38,17.52,13.14C178.43,257.3,166.75,261.68,153.6,263.15Zm121.64-65.73H249l5.84-30.67H227l-23.37,118.3h27.75l13.15-65.72h21.91c10.22,0,10.22,4.38,8.76,11.68l-10.22,54h29.21l10.22-59.88C307.37,210.56,298.61,198.88,275.24,197.42Zm94.52,0h-54l-23.36,118.3h27.75L326,285.05h26.29c24.83,1.46,52.58-19,52.58-54C404.82,210.56,393.13,198.88,369.76,197.42Zm-20.44,65.73H331.79l7.3-43.82h19c10.22,0,17.53,4.38,17.53,13.14C374.15,257.3,362.46,261.68,349.32,263.15Z" transform="translate(-36.76 -139)"/></svg>